<svg width="37" height="37" viewBox="0 0 37 37" fill="none" xmlns="http://www.w3.org/2000/svg">
<rect width="37" height="37" fill="#EBEBEB"/>
<path d="M27.4935 11.8808C27.6519 11.7276 27.7782 11.5442 27.8652 11.3414C27.9521 11.1386 27.9979 10.9205 27.9999 10.6998C28.0019 10.479 27.9601 10.2601 27.8769 10.0558C27.7937 9.85145 27.6707 9.66578 27.5152 9.50962C27.3597 9.35346 27.1747 9.22994 26.9711 9.14626C26.7674 9.06257 26.5492 9.02041 26.3292 9.02222C26.1092 9.02403 25.8917 9.06979 25.6895 9.15682C25.4872 9.24384 25.3043 9.3704 25.1514 9.5291L18.5094 16.1897L11.8696 9.5291C11.7179 9.36577 11.5349 9.23477 11.3317 9.14391C11.1284 9.05305 10.9089 9.0042 10.6864 9.00026C10.4639 8.99632 10.2429 9.03738 10.0365 9.12099C9.83019 9.2046 9.64274 9.32905 9.48538 9.4869C9.32802 9.64476 9.20396 9.8328 9.12061 10.0398C9.03726 10.2468 8.99633 10.4685 9.00026 10.6917C9.00418 10.9149 9.05289 11.1351 9.14346 11.339C9.23404 11.5429 9.36463 11.7264 9.52744 11.8786L16.1628 18.5415L9.52303 25.2021C9.2303 25.5172 9.07094 25.934 9.07851 26.3647C9.08609 26.7954 9.26001 27.2063 9.56363 27.5109C9.86726 27.8155 10.2769 27.9899 10.7062 27.9975C11.1355 28.0051 11.551 27.8453 11.8652 27.5516L18.5094 20.891L25.1492 27.5538C25.4633 27.8475 25.8788 28.0073 26.3081 27.9997C26.7375 27.9921 27.1471 27.8177 27.4507 27.5131C27.7543 27.2085 27.9283 26.7976 27.9358 26.3669C27.9434 25.9363 27.784 25.5195 27.4913 25.2043L20.856 18.5415L27.4935 11.8808Z" fill="#FF0A21"/>
</svg>
