<svg xmlns="http://www.w3.org/2000/svg" width="27" height="27" viewBox="0 0 27 27" fill="none">
  <mask id="mask0_2901_188" style="mask-type:alpha" maskUnits="userSpaceOnUse" x="0" y="0" width="27" height="27">
    <rect x="0.75" y="0.75" width="25.5" height="25.5" fill="#D9D9D9"/>
  </mask>
  <g mask="url(#mask0_2901_188)">
    <path d="M3.86397 12.8097C4.04389 10.2529 5.06247 8.1174 6.91972 6.40306C8.77697 4.68871 10.9704 3.83154 13.5001 3.83154C14.8361 3.83154 16.0898 4.08566 17.261 4.59389C18.4323 5.10212 19.4555 5.79398 20.3309 6.66948C21.2064 7.5448 21.8982 8.56808 22.4065 9.73931C22.9147 10.9105 23.1688 12.1642 23.1688 13.5003C23.1688 14.8261 22.9147 16.0772 22.4065 17.2536C21.8982 18.4299 21.2064 19.4558 20.3309 20.3311C19.4555 21.2066 18.4323 21.8985 17.261 22.4067C16.0898 22.9149 14.8361 23.169 13.5001 23.169C12.3563 23.169 11.2374 22.9691 10.1433 22.5693C9.04933 22.1694 8.05075 21.582 7.14763 20.8071C7.01676 20.653 6.96089 20.483 6.98002 20.2971C6.99914 20.1112 7.0775 19.9494 7.2151 19.8118C7.33357 19.711 7.467 19.6481 7.61539 19.6229C7.76397 19.5978 7.89678 19.639 8.01383 19.7465C8.77795 20.4249 9.6314 20.9347 10.5742 21.2759C11.5168 21.6172 12.4921 21.7878 13.5001 21.7878C15.8032 21.7878 17.7602 20.9817 19.3712 19.3695C20.9821 17.7576 21.7876 15.7991 21.7876 13.4942C21.7876 11.1894 20.9821 9.23303 19.3712 7.62493C17.7602 6.01684 15.8032 5.21279 13.5001 5.21279C11.3451 5.21279 9.47557 5.93954 7.89138 7.39304C6.30701 8.84637 5.42496 10.6519 5.24522 12.8097C5.22681 13.0057 5.15101 13.1698 5.01785 13.3019C4.88468 13.4342 4.71937 13.5003 4.52193 13.5003C4.32749 13.5003 4.16378 13.4319 4.03079 13.2952C3.8978 13.1583 3.84219 12.9965 3.86397 12.8097ZM16.8613 12.454V15.2064C16.8613 15.4024 16.9268 15.5666 17.0578 15.6989C17.1891 15.831 17.3519 15.897 17.5463 15.897C17.7408 15.897 17.9054 15.831 18.0401 15.6989C18.1751 15.5666 18.2425 15.4024 18.2425 15.2064V10.8871C18.2425 10.6432 18.1611 10.4399 17.9981 10.2772C17.8354 10.1143 17.6321 10.0328 17.3883 10.0328H13.0689C12.8729 10.0328 12.7088 10.0984 12.5765 10.2297C12.4444 10.3607 12.3783 10.5234 12.3783 10.7179C12.3783 10.9123 12.4444 11.077 12.5765 11.2119C12.7088 11.3467 12.8729 11.4141 13.0689 11.4141H15.9337L11.9533 15.3884L9.64955 13.0936C9.47583 12.9139 9.27865 12.824 9.058 12.824C8.83736 12.824 8.63805 12.913 8.46008 13.091L4.59763 16.9433C4.44374 17.0972 4.37459 17.2675 4.39018 17.4541C4.40576 17.6406 4.49395 17.8074 4.65474 17.9546C4.80862 18.0812 4.97482 18.1394 5.15332 18.1293C5.33182 18.1191 5.48774 18.0472 5.62108 17.9137L9.0171 14.5075L11.3209 16.7922C11.4946 16.9719 11.6918 17.0635 11.9124 17.0668C12.1331 17.0702 12.3306 16.9847 12.505 16.8102L16.8613 12.454Z" fill="black"/>
  </g>
</svg>